<svg width="119" height="24" viewBox="0 0 119 24" fill="none" xmlns="http://www.w3.org/2000/svg">
<path d="M8 12L8 8C8 5.79086 9.79086 4 12 4C14.2091 4 16 5.79086 16 8L16 12" stroke="white" stroke-width="2" stroke-linecap="round"/>
<path d="M3.69435 12.6678C3.83942 10.9269 3.91196 10.0565 4.48605 9.52824C5.06013 9 5.9336 9 7.68053 9H16.3195C18.0664 9 18.9399 9 19.514 9.52824C20.088 10.0565 20.1606 10.9269 20.3057 12.6678L20.8195 18.8339C20.904 19.8474 20.9462 20.3542 20.6491 20.6771C20.352 21 19.8435 21 18.8264 21H5.1736C4.15655 21 3.64802 21 3.35092 20.6771C3.05382 20.3542 3.09605 19.8474 3.18051 18.8339L3.69435 12.6678Z" stroke="white" stroke-width="2"/>
<path d="M30.62 19C30.5133 19 30.4467 18.9533 30.42 18.86C30.3933 18.7667 30.4 18.5867 30.44 18.32C30.5333 17.72 30.6733 17 30.86 16.16C31.0467 15.3067 31.2667 14.4067 31.52 13.46C31.7733 12.5133 32.04 11.5667 32.32 10.62C32.6133 9.67333 32.9133 8.79333 33.22 7.98C33.5267 7.15333 33.82 6.46667 34.1 5.92C34.18 5.8 34.2467 5.70667 34.3 5.64C34.3667 5.57333 34.4467 5.54 34.54 5.54H36.44C36.5467 5.58 36.6333 5.62667 36.7 5.68C36.7667 5.72 36.8333 5.8 36.9 5.92C37.18 6.46667 37.4733 7.15333 37.78 7.98C38.0867 8.79333 38.3867 9.67333 38.68 10.62C38.9733 11.5667 39.2467 12.52 39.5 13.48C39.7533 14.4267 39.9733 15.3267 40.16 16.18C40.3467 17.02 40.48 17.7333 40.56 18.32C40.6133 18.5867 40.6267 18.7667 40.6 18.86C40.5733 18.9533 40.5 19 40.38 19H38.32C38.2133 19 38.14 18.9733 38.1 18.92C38.06 18.8533 38.0133 18.6933 37.96 18.44C37.9067 18.1333 37.8333 17.7733 37.74 17.36C37.66 16.9333 37.5867 16.56 37.52 16.24C37.5067 16.1467 37.4867 16.0933 37.46 16.08C37.4333 16.0533 37.3733 16.04 37.28 16.04H33.72C33.6267 16.0533 33.5733 16.0667 33.56 16.08C33.5467 16.0933 33.5267 16.1533 33.5 16.26C33.4333 16.5667 33.3533 16.9333 33.26 17.36C33.18 17.7733 33.1067 18.14 33.04 18.46C33 18.7 32.96 18.8533 32.92 18.92C32.88 18.9733 32.8067 19 32.7 19H30.62ZM34.28 14.02H36.72C36.8133 14.02 36.8667 14.0067 36.88 13.98C36.9067 13.94 36.9067 13.8733 36.88 13.78C36.7067 13.1 36.52 12.3933 36.32 11.66C36.12 10.9133 35.9133 10.24 35.7 9.64C35.6733 9.52 35.6267 9.46 35.56 9.46H35.42C35.3667 9.46 35.32 9.52 35.28 9.64C35.1733 9.98667 35.0467 10.3933 34.9 10.86C34.7667 11.3267 34.6333 11.8133 34.5 12.32C34.3667 12.8267 34.24 13.32 34.12 13.8C34.1067 13.88 34.1067 13.94 34.12 13.98C34.1333 14.0067 34.1867 14.02 34.28 14.02ZM41.7361 14.42C41.7628 13.4067 41.8961 12.58 42.1361 11.94C42.3894 11.3 42.7094 10.8 43.0961 10.44C43.4961 10.08 43.9361 9.83333 44.4161 9.7C44.8961 9.56667 45.3828 9.5 45.8761 9.5C46.0628 9.5 46.2761 9.52 46.5161 9.56C46.7561 9.6 46.9428 9.63333 47.0761 9.66C47.1694 9.68667 47.2428 9.69333 47.2961 9.68C47.3628 9.66667 47.3961 9.60667 47.3961 9.5C47.3961 9.26 47.3894 9.00667 47.3761 8.74C47.3761 8.47333 47.3628 8.20667 47.3361 7.94C47.3228 7.66 47.3028 7.38667 47.2761 7.12C47.2494 6.84 47.2228 6.58 47.1961 6.34C47.1828 6.08667 47.1628 5.86 47.1361 5.66C47.1094 5.43333 47.1161 5.3 47.1561 5.26C47.2094 5.22 47.2961 5.2 47.4161 5.2H49.3361C49.4294 5.2 49.5028 5.20667 49.5561 5.22C49.6228 5.23333 49.6628 5.28667 49.6761 5.38C49.7294 5.92667 49.7761 6.56667 49.8161 7.3C49.8561 8.02 49.8894 8.8 49.9161 9.64C49.9428 10.4667 49.9561 11.3 49.9561 12.14C49.9694 12.98 49.9628 13.7867 49.9361 14.56C49.9228 15.3333 49.8894 16.02 49.8361 16.62C49.7961 17.22 49.7361 17.68 49.6561 18C49.6161 18.16 49.5561 18.28 49.4761 18.36C49.4094 18.44 49.2294 18.5333 48.9361 18.64C48.6828 18.7467 48.2761 18.86 47.7161 18.98C47.1561 19.0867 46.5428 19.14 45.8761 19.14C45.3561 19.1267 44.8694 19.0667 44.4161 18.96C43.9761 18.84 43.5894 18.6533 43.2561 18.4C42.7494 18.04 42.3694 17.5333 42.1161 16.88C41.8628 16.2133 41.7361 15.3933 41.7361 14.42ZM44.3561 14.44C44.3428 15.36 44.4494 16.0133 44.6761 16.4C44.9161 16.7733 45.2161 16.9867 45.5761 17.04C45.7361 17.0933 45.9028 17.1267 46.0761 17.14C46.2628 17.14 46.4428 17.1267 46.6161 17.1C46.8028 17.06 46.9628 17.0133 47.0961 16.96C47.1361 16.9333 47.1628 16.9067 47.1761 16.88C47.2028 16.84 47.2161 16.7867 47.2161 16.72C47.2294 16.4267 47.2428 16.12 47.2561 15.8C47.2828 15.48 47.2961 15.16 47.2961 14.84C47.3094 14.52 47.3228 14.2 47.3361 13.88C47.3494 13.56 47.3561 13.2533 47.3561 12.96C47.3694 12.6667 47.3694 12.3933 47.3561 12.14C47.3561 12.0467 47.3428 11.9867 47.3161 11.96C47.3028 11.92 47.2694 11.8933 47.2161 11.88C47.0428 11.8133 46.8361 11.76 46.5961 11.72C46.3694 11.6667 46.1761 11.64 46.0161 11.64C45.8561 11.64 45.6761 11.6733 45.4761 11.74C45.2894 11.8067 45.1094 11.9333 44.9361 12.12C44.7761 12.3067 44.6428 12.5867 44.5361 12.96C44.4294 13.32 44.3694 13.8133 44.3561 14.44ZM51.5213 14.42C51.5479 13.4067 51.6813 12.58 51.9213 11.94C52.1746 11.3 52.4946 10.8 52.8813 10.44C53.2813 10.08 53.7213 9.83333 54.2013 9.7C54.6813 9.56667 55.1679 9.5 55.6613 9.5C55.8479 9.5 56.0613 9.52 56.3013 9.56C56.5413 9.6 56.7279 9.63333 56.8613 9.66C56.9546 9.68667 57.0279 9.69333 57.0813 9.68C57.1479 9.66667 57.1813 9.60667 57.1813 9.5C57.1813 9.26 57.1746 9.00667 57.1613 8.74C57.1613 8.47333 57.1479 8.20667 57.1213 7.94C57.1079 7.66 57.0879 7.38667 57.0613 7.12C57.0346 6.84 57.0079 6.58 56.9813 6.34C56.9679 6.08667 56.9479 5.86 56.9213 5.66C56.8946 5.43333 56.9013 5.3 56.9413 5.26C56.9946 5.22 57.0813 5.2 57.2013 5.2H59.1213C59.2146 5.2 59.2879 5.20667 59.3413 5.22C59.4079 5.23333 59.4479 5.28667 59.4613 5.38C59.5146 5.92667 59.5613 6.56667 59.6013 7.3C59.6413 8.02 59.6746 8.8 59.7013 9.64C59.7279 10.4667 59.7413 11.3 59.7413 12.14C59.7546 12.98 59.7479 13.7867 59.7213 14.56C59.7079 15.3333 59.6746 16.02 59.6213 16.62C59.5813 17.22 59.5213 17.68 59.4413 18C59.4013 18.16 59.3413 18.28 59.2613 18.36C59.1946 18.44 59.0146 18.5333 58.7213 18.64C58.4679 18.7467 58.0613 18.86 57.5013 18.98C56.9413 19.0867 56.3279 19.14 55.6613 19.14C55.1413 19.1267 54.6546 19.0667 54.2013 18.96C53.7613 18.84 53.3746 18.6533 53.0413 18.4C52.5346 18.04 52.1546 17.5333 51.9013 16.88C51.6479 16.2133 51.5213 15.3933 51.5213 14.42ZM54.1413 14.44C54.1279 15.36 54.2346 16.0133 54.4613 16.4C54.7013 16.7733 55.0013 16.9867 55.3613 17.04C55.5213 17.0933 55.6879 17.1267 55.8613 17.14C56.0479 17.14 56.2279 17.1267 56.4013 17.1C56.5879 17.06 56.7479 17.0133 56.8813 16.96C56.9213 16.9333 56.9479 16.9067 56.9613 16.88C56.9879 16.84 57.0013 16.7867 57.0013 16.72C57.0146 16.4267 57.0279 16.12 57.0413 15.8C57.0679 15.48 57.0813 15.16 57.0813 14.84C57.0946 14.52 57.1079 14.2 57.1213 13.88C57.1346 13.56 57.1413 13.2533 57.1413 12.96C57.1546 12.6667 57.1546 12.3933 57.1413 12.14C57.1413 12.0467 57.1279 11.9867 57.1013 11.96C57.0879 11.92 57.0546 11.8933 57.0013 11.88C56.8279 11.8133 56.6213 11.76 56.3813 11.72C56.1546 11.6667 55.9613 11.64 55.8013 11.64C55.6413 11.64 55.4613 11.6733 55.2613 11.74C55.0746 11.8067 54.8946 11.9333 54.7213 12.12C54.5613 12.3067 54.4279 12.5867 54.3213 12.96C54.2146 13.32 54.1546 13.8133 54.1413 14.44ZM69.7767 19C68.8701 19 68.1901 18.8133 67.7367 18.44C67.2967 18.0533 67.0034 17.52 66.8567 16.84C66.7501 16.28 66.6901 15.7067 66.6767 15.12C66.6767 14.5333 66.6767 13.94 66.6767 13.34C66.6767 12.9533 66.6767 12.6133 66.6767 12.32C66.6901 12.0267 66.7034 11.7 66.7167 11.34C66.7167 11.2067 66.6567 11.14 66.5367 11.14H65.7167C65.6101 11.14 65.5367 11.1267 65.4967 11.1C65.4701 11.0733 65.4567 10.9933 65.4567 10.86V9.86C65.4567 9.7 65.4701 9.61333 65.4967 9.6C65.5367 9.57333 65.6301 9.56 65.7767 9.56H66.5967C66.7034 9.56 66.7634 9.53333 66.7767 9.48C66.7901 9.42667 66.8034 9.34 66.8167 9.22L66.8967 7.72C66.8967 7.56 66.9767 7.48 67.1367 7.48H69.1367C69.2034 7.48 69.2701 7.50667 69.3367 7.56C69.4034 7.6 69.4301 7.65333 69.4167 7.72L69.3167 9.22C69.3034 9.38 69.3034 9.48 69.3167 9.52C69.3434 9.54667 69.3967 9.56 69.4767 9.56H71.1567C71.2901 9.56 71.3701 9.58 71.3967 9.62C71.4234 9.64667 71.4367 9.74 71.4367 9.9V10.84C71.4367 10.9733 71.4167 11.06 71.3767 11.1C71.3367 11.1267 71.2501 11.14 71.1167 11.14H69.4567C69.3767 11.14 69.3167 11.1667 69.2767 11.22C69.2501 11.26 69.2367 11.3267 69.2367 11.42C69.2234 11.7667 69.2101 12.12 69.1967 12.48C69.1834 12.8267 69.1767 13.1867 69.1767 13.56C69.1767 14.0267 69.1834 14.5 69.1967 14.98C69.2234 15.4467 69.2834 15.9 69.3767 16.34C69.4567 16.5933 69.5701 16.7733 69.7167 16.88C69.8634 16.9867 70.0567 17.04 70.2967 17.04C70.4567 17.04 70.6101 17.02 70.7567 16.98C70.9034 16.9267 71.0301 16.8867 71.1367 16.86C71.2967 16.7667 71.3967 16.74 71.4367 16.78C71.4767 16.8067 71.5234 16.8867 71.5767 17.02L71.9167 18.22C71.9701 18.3133 71.9567 18.4 71.8767 18.48C71.7967 18.5467 71.6367 18.6267 71.3967 18.72C71.2367 18.7733 71.0634 18.8267 70.8767 18.88C70.6901 18.92 70.5034 18.9533 70.3167 18.98C70.1301 18.9933 69.9501 19 69.7767 19ZM76.9927 19.16C75.8327 19.16 74.9327 18.9467 74.2927 18.52C73.666 18.08 73.226 17.4933 72.9727 16.76C72.7327 16.0133 72.6127 15.1667 72.6127 14.22C72.6127 13.3 72.7527 12.48 73.0327 11.76C73.3127 11.0267 73.766 10.4533 74.3927 10.04C75.0327 9.61333 75.8993 9.4 76.9927 9.4C78.0993 9.4 78.966 9.61333 79.5927 10.04C80.2327 10.4533 80.686 11.0267 80.9527 11.76C81.2327 12.48 81.3727 13.3 81.3727 14.22C81.3727 15.1533 81.2527 15.9933 81.0127 16.74C80.7727 17.4733 80.3327 18.06 79.6927 18.5C79.066 18.94 78.166 19.16 76.9927 19.16ZM76.9727 17.2C77.626 17.2 78.086 16.9467 78.3527 16.44C78.6193 15.9333 78.7527 15.22 78.7527 14.3C78.7527 13.38 78.606 12.6867 78.3127 12.22C78.0327 11.74 77.586 11.5 76.9727 11.5C76.3727 11.5 75.926 11.74 75.6327 12.22C75.3527 12.6867 75.2127 13.38 75.2127 14.3C75.2127 15.2333 75.3393 15.9533 75.5927 16.46C75.8593 16.9533 76.3193 17.2 76.9727 17.2ZM91.5016 19.16C90.6482 19.16 89.9349 19.0333 89.3616 18.78C88.8016 18.5267 88.3682 18.1733 88.0616 17.72C87.7549 17.2667 87.5416 16.7467 87.4216 16.16C87.3016 15.5733 87.2416 14.94 87.2416 14.26C87.2416 13.6333 87.3016 13.0333 87.4216 12.46C87.5549 11.8867 87.7749 11.3667 88.0816 10.9C88.4016 10.4333 88.8349 10.0667 89.3816 9.8C89.9416 9.53333 90.6416 9.4 91.4816 9.4C92.0682 9.4 92.5749 9.46 93.0016 9.58C93.4416 9.7 93.8282 9.9 94.1616 10.18C94.2549 10.2733 94.3149 10.3467 94.3416 10.4C94.3816 10.44 94.4016 10.5133 94.4016 10.62V12.1C94.4016 12.22 94.3616 12.2867 94.2816 12.3C94.2149 12.3 94.1482 12.2733 94.0816 12.22C93.7349 11.9133 93.3682 11.7133 92.9816 11.62C92.6082 11.5267 92.2216 11.48 91.8216 11.48C91.4749 11.48 91.1682 11.56 90.9016 11.72C90.6482 11.8667 90.4416 12.0733 90.2816 12.34C90.1216 12.6067 89.9949 12.9133 89.9016 13.26C89.8216 13.5933 89.7816 13.9333 89.7816 14.28C89.7816 14.8933 89.8549 15.42 90.0016 15.86C90.1482 16.2867 90.3616 16.62 90.6416 16.86C90.9216 17.0867 91.2682 17.2 91.6816 17.2C91.9882 17.2 92.2882 17.16 92.5816 17.08C92.8882 17 93.2216 16.8733 93.5816 16.7C93.8082 16.5933 93.9682 16.6467 94.0616 16.86L94.5416 17.98C94.5949 18.0867 94.6082 18.1733 94.5816 18.24C94.5682 18.2933 94.5149 18.3467 94.4216 18.4C94.0749 18.6533 93.6349 18.8467 93.1016 18.98C92.5682 19.1 92.0349 19.16 91.5016 19.16ZM99.4438 19.14C98.7638 19.14 98.1238 19.0667 97.5238 18.92C96.9371 18.76 96.4571 18.46 96.0838 18.02C95.7238 17.58 95.5438 16.94 95.5438 16.1C95.5438 15.4067 95.6704 14.84 95.9238 14.4C96.1904 13.9467 96.5238 13.6 96.9238 13.36C97.3371 13.12 97.7638 12.96 98.2038 12.88C98.6438 12.7867 99.0371 12.74 99.3838 12.74C99.6638 12.74 99.9304 12.7533 100.184 12.78C100.45 12.7933 100.697 12.82 100.924 12.86C101.044 12.9 101.104 12.8133 101.104 12.6C101.104 12.1067 100.95 11.76 100.644 11.56C100.35 11.36 99.9371 11.26 99.4038 11.26C98.8971 11.26 98.4104 11.3533 97.9438 11.54C97.4904 11.7267 97.1038 11.9 96.7838 12.06C96.6371 12.14 96.5371 12.1667 96.4838 12.14C96.4438 12.1133 96.4104 12.0267 96.3838 11.88L96.2038 10.76C96.1771 10.5867 96.1771 10.4733 96.2038 10.42C96.2304 10.3667 96.3038 10.3 96.4238 10.22C96.7704 9.99333 97.2104 9.81333 97.7438 9.68C98.2771 9.53333 98.8438 9.46 99.4438 9.46C100.35 9.46 101.077 9.56667 101.624 9.78C102.17 9.98 102.577 10.2533 102.844 10.6C103.124 10.9467 103.304 11.3467 103.384 11.8C103.477 12.24 103.524 12.7 103.524 13.18C103.537 13.74 103.537 14.2933 103.524 14.84C103.524 15.3733 103.51 15.9067 103.484 16.44C103.457 16.9733 103.417 17.5133 103.364 18.06C103.337 18.2067 103.297 18.32 103.244 18.4C103.19 18.4667 103.084 18.54 102.924 18.62C102.737 18.7133 102.49 18.7933 102.184 18.86C101.877 18.9133 101.544 18.96 101.184 19C100.837 19.0533 100.51 19.0867 100.204 19.1C99.8971 19.1267 99.6438 19.14 99.4438 19.14ZM99.6038 17.6C99.7104 17.6 99.8304 17.5933 99.9638 17.58C100.097 17.5533 100.23 17.52 100.364 17.48C100.497 17.44 100.604 17.3867 100.684 17.32C100.777 17.2533 100.83 17.1667 100.844 17.06C100.884 16.74 100.917 16.3867 100.944 16C100.97 15.6133 100.97 15.24 100.944 14.88C100.944 14.7067 100.877 14.5867 100.744 14.52C100.61 14.4267 100.417 14.3733 100.164 14.36C99.9238 14.3333 99.7238 14.32 99.5638 14.32C99.4438 14.32 99.2904 14.3467 99.1038 14.4C98.9304 14.44 98.7638 14.52 98.6038 14.64C98.4438 14.76 98.3104 14.94 98.2038 15.18C98.1104 15.42 98.0638 15.7267 98.0638 16.1C98.0638 16.3933 98.1238 16.6533 98.2438 16.88C98.3638 17.1067 98.5371 17.2867 98.7638 17.42C98.9904 17.54 99.2704 17.6 99.6038 17.6ZM108.358 9.48C109.372 9.48 110.205 9.62667 110.858 9.92C110.992 9.97333 111.065 10.0267 111.078 10.08C111.105 10.1333 111.112 10.2067 111.098 10.3L110.738 11.54C110.712 11.6467 110.678 11.7133 110.638 11.74C110.598 11.7533 110.518 11.74 110.398 11.7C110.172 11.6333 109.918 11.5867 109.638 11.56C109.358 11.52 109.145 11.5 108.998 11.5C108.785 11.5 108.605 11.5133 108.458 11.54C108.312 11.5533 108.198 11.5733 108.118 11.6C108.038 11.6267 107.972 11.6533 107.918 11.68C107.865 11.72 107.805 11.7667 107.738 11.82C107.685 11.8733 107.658 11.9933 107.658 12.18V18.58C107.658 18.7667 107.632 18.8867 107.578 18.94C107.525 18.98 107.432 19 107.298 19H105.358C105.292 19 105.232 18.98 105.178 18.94C105.125 18.9 105.098 18.8067 105.098 18.66V10.66C105.098 10.4467 105.118 10.3133 105.158 10.26C105.212 10.1933 105.312 10.1267 105.458 10.06C105.858 9.87333 106.332 9.73333 106.878 9.64C107.438 9.53333 107.932 9.48 108.358 9.48ZM115.636 19C114.729 19 114.049 18.8133 113.596 18.44C113.156 18.0533 112.863 17.52 112.716 16.84C112.609 16.28 112.549 15.7067 112.536 15.12C112.536 14.5333 112.536 13.94 112.536 13.34C112.536 12.9533 112.536 12.6133 112.536 12.32C112.549 12.0267 112.563 11.7 112.576 11.34C112.576 11.2067 112.516 11.14 112.396 11.14H111.576C111.469 11.14 111.396 11.1267 111.356 11.1C111.329 11.0733 111.316 10.9933 111.316 10.86V9.86C111.316 9.7 111.329 9.61333 111.356 9.6C111.396 9.57333 111.489 9.56 111.636 9.56H112.456C112.563 9.56 112.623 9.53333 112.636 9.48C112.649 9.42667 112.663 9.34 112.676 9.22L112.756 7.72C112.756 7.56 112.836 7.48 112.996 7.48H114.996C115.063 7.48 115.129 7.50667 115.196 7.56C115.263 7.6 115.289 7.65333 115.276 7.72L115.176 9.22C115.163 9.38 115.163 9.48 115.176 9.52C115.203 9.54667 115.256 9.56 115.336 9.56H117.016C117.149 9.56 117.229 9.58 117.256 9.62C117.283 9.64667 117.296 9.74 117.296 9.9V10.84C117.296 10.9733 117.276 11.06 117.236 11.1C117.196 11.1267 117.109 11.14 116.976 11.14H115.316C115.236 11.14 115.176 11.1667 115.136 11.22C115.109 11.26 115.096 11.3267 115.096 11.42C115.083 11.7667 115.069 12.12 115.056 12.48C115.043 12.8267 115.036 13.1867 115.036 13.56C115.036 14.0267 115.043 14.5 115.056 14.98C115.083 15.4467 115.143 15.9 115.236 16.34C115.316 16.5933 115.429 16.7733 115.576 16.88C115.723 16.9867 115.916 17.04 116.156 17.04C116.316 17.04 116.469 17.02 116.616 16.98C116.763 16.9267 116.889 16.8867 116.996 16.86C117.156 16.7667 117.256 16.74 117.296 16.78C117.336 16.8067 117.383 16.8867 117.436 17.02L117.776 18.22C117.829 18.3133 117.816 18.4 117.736 18.48C117.656 18.5467 117.496 18.6267 117.256 18.72C117.096 18.7733 116.923 18.8267 116.736 18.88C116.549 18.92 116.363 18.9533 116.176 18.98C115.989 18.9933 115.809 19 115.636 19Z" fill="white"/>
</svg>
